<svg width="20" height="18" viewBox="0 0 20 18" fill="none" xmlns="http://www.w3.org/2000/svg">
<path d="M16.3333 15.75L11.0833 11.025C10.6667 11.325 10.1875 11.5625 9.64583 11.7375C9.10417 11.9125 8.52778 12 7.91667 12C6.40278 12 5.12153 11.5281 4.07292 10.5844C3.02431 9.64062 2.5 8.4875 2.5 7.125C2.5 5.7625 3.02431 4.60938 4.07292 3.66563C5.12153 2.72188 6.40278 2.25 7.91667 2.25C9.43056 2.25 10.7118 2.72188 11.7604 3.66563C12.809 4.60938 13.3333 5.7625 13.3333 7.125C13.3333 7.675 13.2361 8.19375 13.0417 8.68125C12.8472 9.16875 12.5833 9.6 12.25 9.975L17.5 14.7L16.3333 15.75ZM7.91667 10.5C8.95833 10.5 9.84375 10.1719 10.5729 9.51562C11.3021 8.85938 11.6667 8.0625 11.6667 7.125C11.6667 6.1875 11.3021 5.39062 10.5729 4.73438C9.84375 4.07812 8.95833 3.75 7.91667 3.75C6.875 3.75 5.98958 4.07812 5.26042 4.73438C4.53125 5.39062 4.16667 6.1875 4.16667 7.125C4.16667 8.0625 4.53125 8.85938 5.26042 9.51562C5.98958 10.1719 6.875 10.5 7.91667 10.5Z" fill="black"/>
</svg>
